<svg version="1.1" xmlns="http://www.w3.org/2000/svg" viewBox="0 0 884.8213407678381 459.3767083141179" width="884.8213407678381" height="459.3767083141179">
  <!-- svg-source:excalidraw -->
  
  <defs>
    <style class="style-fonts">
      @font-face {
        font-family: "Virgil";
        src: url("https://excalidraw.com/Virgil.woff2");
      }
      @font-face {
        font-family: "Cascadia";
        src: url("https://excalidraw.com/Cascadia.woff2");
      }
    </style>
  </defs>
  <rect x="0" y="0" width="884.8213407678381" height="459.3767083141179" fill="#f1f3f5"></rect><g stroke-linecap="round" transform="translate(13.8658579450655 225.5639929424267) rotate(0 75.5 38)"><path d="M19 0 M19 0 C63.31 -0.06, 109.5 -1.85, 132 0 M19 0 C46.49 0.75, 72.33 0.2, 132 0 M132 0 C143.11 -1.47, 150.99 5.09, 151 19 M132 0 C144.36 -1.65, 150.84 8.62, 151 19 M151 19 C152.59 27.08, 150.44 34.6, 151 57 M151 19 C150.48 29.26, 152.14 39.65, 151 57 M151 57 C152.93 69.68, 143.79 74.81, 132 76 M151 57 C149.54 71.46, 145.22 76.42, 132 76 M132 76 C105.78 77.57, 80.18 76.2, 19 76 M132 76 C90.16 75.72, 50.89 76.67, 19 76 M19 76 C5.26 76.15, 0.55 70.1, 0 57 M19 76 C7.48 74.52, -0.27 70.74, 0 57 M0 57 C-0.53 42.18, 1.64 29.24, 0 19 M0 57 C-0.85 48.33, 0.52 37.6, 0 19 M0 19 C-0.74 7.2, 6.18 0.42, 19 0 M0 19 C0.65 7.45, 5.16 0.06, 19 0" stroke="#000000" stroke-width="1" fill="none"></path></g><g transform="translate(57.8658579450655 241.0639929424267) rotate(0 31.5 22.5)"><text x="31.5" y="31" font-family="Virgil, Segoe UI Emoji" font-size="36px" fill="#000000" text-anchor="middle" style="white-space: pre;" direction="ltr">1, R</text></g><g stroke-linecap="round" transform="translate(11.607893875954915 84.07129543683254) rotate(0 75.5 38)"><path d="M19 0 M19 0 C54.48 -0.99, 88.97 -0.96, 132 0 M19 0 C45.13 -1.04, 69.17 -0.9, 132 0 M132 0 C146.28 0.5, 152.15 8.13, 151 19 M132 0 C144.36 1.86, 151.56 4.09, 151 19 M151 19 C152.32 31.37, 150.55 43.76, 151 57 M151 19 C151.5 31.08, 150.83 44.86, 151 57 M151 57 C151.23 69.24, 142.94 75.19, 132 76 M151 57 C150.88 67.78, 144.39 77.47, 132 76 M132 76 C94.52 73.75, 54.76 76.25, 19 76 M132 76 C105.67 76.37, 79.2 75.15, 19 76 M19 76 C5.38 74.15, 1.84 70.2, 0 57 M19 76 C5.08 75.1, -1.47 67.62, 0 57 M0 57 C1.96 43.33, -1.59 31.69, 0 19 M0 57 C0.46 48.15, 0.9 41.17, 0 19 M0 19 C1.74 7.64, 5.55 -0.18, 19 0 M0 19 C0.72 4.39, 4.54 -1.83, 19 0" stroke="#000000" stroke-width="1" fill="none"></path></g><g transform="translate(49.107893875954915 99.57129543683254) rotate(0 38 22.5)"><text x="38" y="31" font-family="Virgil, Segoe UI Emoji" font-size="36px" fill="#000000" text-anchor="middle" style="white-space: pre;" direction="ltr">0, L</text></g><g stroke-linecap="round"><g transform="translate(83.91591119432155 160.00879301621399) rotate(0 -0.06659294332382615 32.26461131433348)"><path d="M-0.05 1.09 C-0.34 11.44, -0.67 52.12, -0.85 62.57 M-1.54 0.61 C-1.53 11.1, 0.96 53.71, 1.41 63.92" stroke="#000000" stroke-width="1" fill="none"></path></g><g transform="translate(83.91591119432155 160.00879301621399) rotate(0 -0.06659294332382615 32.26461131433348)"><path d="M-8.47 34.87 C-6.42 44.67, -0.09 57.96, 0.07 63.91 M-11.08 36.24 C-5.12 46.26, -2.2 57.05, 0.78 64.24" stroke="#000000" stroke-width="1" fill="none"></path></g><g transform="translate(83.91591119432155 160.00879301621399) rotate(0 -0.06659294332382615 32.26461131433348)"><path d="M12.02 33.81 C6.45 44, 5.14 57.68, 0.07 63.91 M9.41 35.18 C7.61 45.61, 2.75 56.8, 0.78 64.24" stroke="#000000" stroke-width="1" fill="none"></path></g></g><mask></mask><g stroke-linecap="round"><g transform="translate(170.34500505262758 266.81771544794856) rotate(0 26.154980959298996 -75.48521172134951)"><path d="M-0.19 0.77 C9.4 -12.31, 56.88 -52.32, 56.34 -77.41 C55.81 -102.5, 6.67 -137.58, -3.4 -149.77 M-1.75 0.13 C7.83 -12.75, 56.04 -53.63, 55.66 -78.94 C55.28 -104.25, 5.92 -139.98, -4.04 -151.74" stroke="#000000" stroke-width="1" fill="none"></path></g><g transform="translate(170.34500505262758 266.81771544794856) rotate(0 26.154980959298996 -75.48521172134951)"><path d="M24.83 -139.11 C19.77 -141.96, 13.51 -145.47, -4.17 -151.65 M24.29 -140.35 C19.05 -141.68, 12.33 -145.73, -3.06 -150.89" stroke="#000000" stroke-width="1" fill="none"></path></g><g transform="translate(170.34500505262758 266.81771544794856) rotate(0 26.154980959298996 -75.48521172134951)"><path d="M10.8 -124.13 C8.43 -129.98, 5 -136.5, -4.17 -151.65 M10.26 -125.38 C7.9 -129.65, 3.99 -136.7, -3.06 -150.89" stroke="#000000" stroke-width="1" fill="none"></path></g></g><mask></mask><g stroke-linecap="round" transform="translate(261.35868787722666 225.0612786071356) rotate(0 75.5 38)"><path d="M19 0 M19 0 C60.61 0.83, 104.54 -0.8, 132 0 M19 0 C48.64 1.05, 77.31 0.43, 132 0 M132 0 C144.4 0.92, 151.73 5.8, 151 19 M132 0 C143.31 1.04, 151.96 5.89, 151 19 M151 19 C152.57 27.37, 148.97 35.33, 151 57 M151 19 C151.88 26.3, 151.54 35.43, 151 57 M151 57 C150.5 68.65, 145.27 77.7, 132 76 M151 57 C151.5 70.72, 146.54 75.52, 132 76 M132 76 C94.83 76.34, 59.14 76.9, 19 76 M132 76 C105.77 76.91, 80.17 76.66, 19 76 M19 76 C5.12 76.61, -1 70.41, 0 57 M19 76 C4.59 76.21, 1.72 70.44, 0 57 M0 57 C-1.12 48.57, -0.72 38.39, 0 19 M0 57 C0.58 47.87, 0.23 37.25, 0 19 M0 19 C1.19 6.1, 6.47 -0.68, 19 0 M0 19 C1.29 5.07, 6 1.5, 19 0" stroke="#000000" stroke-width="1" fill="none"></path></g><g transform="translate(305.35868787722666 240.5612786071356) rotate(0 31.5 22.5)"><text x="31.5" y="31" font-family="Virgil, Segoe UI Emoji" font-size="36px" fill="#000000" text-anchor="middle" style="white-space: pre;" direction="ltr">1, R</text></g><g stroke-linecap="round" transform="translate(259.1007238081161 83.56858110154144) rotate(0 75.5 38)"><path d="M19 0 M19 0 C43.42 -1.63, 68.93 0.15, 132 0 M19 0 C45.55 -0.64, 70.17 0.21, 132 0 M132 0 C145.39 -0.53, 149.82 7.23, 151 19 M132 0 C145.62 -0.44, 148.79 4.76, 151 19 M151 19 C149.58 27.7, 149.55 36.38, 151 57 M151 19 C151.45 34.14, 150.96 47.82, 151 57 M151 57 C151.6 71.37, 145.1 76.92, 132 76 M151 57 C152.87 69.18, 145.35 76, 132 76 M132 76 C104 77.75, 71.28 78.28, 19 76 M132 76 C91.51 76.19, 49.53 76.54, 19 76 M19 76 C5.33 76.74, -1.51 69.85, 0 57 M19 76 C8.05 76.77, -0.86 67.41, 0 57 M0 57 C-0.8 43.59, -0.77 29.44, 0 19 M0 57 C0.24 41.93, 0.23 28.63, 0 19 M0 19 C0.14 5.65, 7.45 -1.1, 19 0 M0 19 C-0.33 7.83, 6.02 -2.13, 19 0" stroke="#000000" stroke-width="1" fill="none"></path></g><g transform="translate(296.6007238081161 99.06858110154144) rotate(0 38 22.5)"><text x="38" y="31" font-family="Virgil, Segoe UI Emoji" font-size="36px" fill="#000000" text-anchor="middle" style="white-space: pre;" direction="ltr">0, L</text></g><g stroke-linecap="round"><g transform="translate(331.4087411264827 159.50607868092266) rotate(0 -0.1456431188202032 31.28771389853989)"><path d="M-0.99 -0.55 C-0.97 9.89, -0.27 51.43, 0.08 62.05 M0.7 1.77 C0.56 12.4, -0.86 52.65, -0.82 63.13" stroke="#000000" stroke-width="1" fill="none"></path></g><g transform="translate(331.4087411264827 159.50607868092266) rotate(0 -0.1456431188202032 31.28771389853989)"><path d="M-11.49 34.9 C-9.26 45.18, -4.44 53.6, -1.6 62.86 M-11.16 35.21 C-6.68 44.41, -4.68 53.74, -1.75 64.04" stroke="#000000" stroke-width="1" fill="none"></path></g><g transform="translate(331.4087411264827 159.50607868092266) rotate(0 -0.1456431188202032 31.28771389853989)"><path d="M9.03 35.27 C5.13 45.27, 3.81 53.58, -1.6 62.86 M9.35 35.57 C6.74 44.6, 1.64 53.8, -1.75 64.04" stroke="#000000" stroke-width="1" fill="none"></path></g></g><mask></mask><g stroke-linecap="round" transform="translate(258.85843293065864 371.1586114216768) rotate(0 75.5 38)"><path d="M19 0 M19 0 C56.13 1.69, 91.92 -0.66, 132 0 M19 0 C53.04 0.03, 89.59 0.24, 132 0 M132 0 C146.14 1.14, 150.52 5.87, 151 19 M132 0 C143.28 -0.23, 150.18 4.35, 151 19 M151 19 C151.31 25.46, 152.31 34.3, 151 57 M151 19 C151.36 28.61, 151.12 36.92, 151 57 M151 57 C149.5 70.73, 142.95 75.2, 132 76 M151 57 C150.76 68.14, 144.44 76.74, 132 76 M132 76 C102.86 73.68, 72.24 73.73, 19 76 M132 76 C106.21 75.86, 81.4 76.22, 19 76 M19 76 C5.75 74.83, -0.5 68.66, 0 57 M19 76 C8.32 78.16, 2.19 68.82, 0 57 M0 57 C-1.8 49.04, 0.5 39.47, 0 19 M0 57 C-0.39 49.38, 0.4 42.31, 0 19 M0 19 C-0.33 5.49, 7.91 1.24, 19 0 M0 19 C-1.48 7.09, 6.57 1.74, 19 0" stroke="#000000" stroke-width="1" fill="none"></path></g><g transform="translate(295.35843293065864 386.6586114216768) rotate(0 39 22.5)"><text x="39" y="31" font-family="Virgil, Segoe UI Emoji" font-size="36px" fill="#000000" text-anchor="middle" style="white-space: pre;" direction="ltr">2, N</text></g><g stroke-linecap="round"><g transform="translate(334.6220311014272 304.96181973705166) rotate(0 -0.5475703787742532 31.117440356308066)"><path d="M-1.2 -1.19 C-1.23 9.28, -0.4 52.6, -0.33 63.42 M0.38 0.81 C0.17 10.86, -1.67 51.39, -1.46 61.56" stroke="#000000" stroke-width="1" fill="none"></path></g><g transform="translate(334.6220311014272 304.96181973705166) rotate(0 -0.5475703787742532 31.117440356308066)"><path d="M-13.22 32.65 C-7.44 40.18, -4.1 51.11, -0.26 62.21 M-11.56 32.51 C-8.33 40.52, -5.54 49.19, -0.77 60.63" stroke="#000000" stroke-width="1" fill="none"></path></g><g transform="translate(334.6220311014272 304.96181973705166) rotate(0 -0.5475703787742532 31.117440356308066)"><path d="M7.3 32.99 C7.14 40.22, 4.54 51.05, -0.26 62.21 M8.96 32.85 C6.46 40.86, 3.52 49.44, -0.77 60.63" stroke="#000000" stroke-width="1" fill="none"></path></g></g><mask></mask><g transform="translate(10 13.219139880065768) rotate(0 77 22.5)"><text x="0" y="32" font-family="Virgil, Segoe UI Emoji" font-size="36px" fill="#000000" text-anchor="start" style="white-space: pre;" direction="ltr">ruleset 1</text></g><g transform="translate(257.0016409821051 12.582981429628944) rotate(0 85 22.5)"><text x="0" y="32" font-family="Virgil, Segoe UI Emoji" font-size="36px" fill="#000000" text-anchor="start" style="white-space: pre;" direction="ltr">ruleset 2</text></g><g transform="translate(495.05632170810713 10) rotate(0 84.5 22.5)"><text x="0" y="32" font-family="Virgil, Segoe UI Emoji" font-size="36px" fill="#000000" text-anchor="start" style="white-space: pre;" direction="ltr">ruleset 3</text></g><g stroke-linecap="round" transform="translate(506.18376245407376 225.8099847333251) rotate(0 75.5 38)"><path d="M19 0 M19 0 C45.99 0.26, 71.21 -2.73, 132 0 M19 0 C61.96 0.51, 102.55 -0.62, 132 0 M132 0 C143.28 -0.6, 151.69 7.78, 151 19 M132 0 C142.45 -0.1, 149.78 5.27, 151 19 M151 19 C152.27 28.53, 151.48 36.24, 151 57 M151 19 C151.25 31.99, 151.38 43.98, 151 57 M151 57 C150.74 68.27, 146.52 75.82, 132 76 M151 57 C148.87 69.54, 145.66 76.77, 132 76 M132 76 C96.08 75.5, 64.46 75.38, 19 76 M132 76 C97.38 76.47, 62.04 75.97, 19 76 M19 76 C4.39 76.77, -0.11 71.08, 0 57 M19 76 C4.57 77.78, 0.37 67.78, 0 57 M0 57 C-0.41 46.06, -1.07 33.86, 0 19 M0 57 C-0.52 46.18, -1.06 33.26, 0 19 M0 19 C-0.29 4.59, 7.49 -1.01, 19 0 M0 19 C-1.89 7.81, 4.46 -0.67, 19 0" stroke="#000000" stroke-width="1" fill="none"></path></g><g transform="translate(550.1837624540738 241.3099847333251) rotate(0 31.5 22.5)"><text x="31.5" y="31" font-family="Virgil, Segoe UI Emoji" font-size="36px" fill="#000000" text-anchor="middle" style="white-space: pre;" direction="ltr">1, R</text></g><g stroke-linecap="round" transform="translate(503.9257983849627 84.31728722773096) rotate(0 75.5 38)"><path d="M19 0 M19 0 C63.82 -2.42, 109.23 -1.11, 132 0 M19 0 C55.87 -1.24, 93.55 -1.29, 132 0 M132 0 C145.36 1.45, 149.07 6.25, 151 19 M132 0 C143.45 -1.07, 149.41 7.43, 151 19 M151 19 C151.5 29.69, 151.57 39.87, 151 57 M151 19 C151.77 30.92, 151.05 40.51, 151 57 M151 57 C152.85 69.48, 142.81 75.89, 132 76 M151 57 C152 70.44, 144.79 74.89, 132 76 M132 76 C99.02 75, 63.16 75.5, 19 76 M132 76 C92.45 75.42, 53.11 76.35, 19 76 M19 76 C6.22 77.42, -1.54 71.21, 0 57 M19 76 C6.7 74.11, 0.69 71.16, 0 57 M0 57 C-0.79 48.84, 0.09 37.25, 0 19 M0 57 C-0.8 47.8, 0.02 39.18, 0 19 M0 19 C1.16 5.32, 4.69 1.28, 19 0 M0 19 C-1.87 5.67, 5.92 1.36, 19 0" stroke="#000000" stroke-width="1" fill="none"></path></g><g transform="translate(541.4257983849627 99.81728722773096) rotate(0 38 22.5)"><text x="38" y="31" font-family="Virgil, Segoe UI Emoji" font-size="36px" fill="#000000" text-anchor="middle" style="white-space: pre;" direction="ltr">0, L</text></g><g stroke-linecap="round"><g transform="translate(576.2338157033298 160.25478480711263) rotate(0 -0.31355052767162306 31.805901171796336)"><path d="M-1.01 0.88 C-1.18 11.39, -0.55 52.8, -0.22 63.32 M0.66 0.29 C0.25 10.41, -1.3 51.09, -1.29 61.41" stroke="#000000" stroke-width="1" fill="none"></path></g><g transform="translate(576.2338157033298 160.25478480711263) rotate(0 -0.31355052767162306 31.805901171796336)"><path d="M-9.48 32.63 C-6.69 45.07, -2.06 52.32, -1.78 60.01 M-11.91 32.96 C-8.77 40.14, -6.32 48.75, -1.39 61.95" stroke="#000000" stroke-width="1" fill="none"></path></g><g transform="translate(576.2338157033298 160.25478480711263) rotate(0 -0.31355052767162306 31.805901171796336)"><path d="M11.04 33.07 C6.33 45.18, 3.46 52.27, -1.78 60.01 M8.61 33.4 C6.21 40.61, 3.11 49.1, -1.39 61.95" stroke="#000000" stroke-width="1" fill="none"></path></g></g><mask></mask><g stroke-linecap="round" transform="translate(503.68350750750574 371.90731754786657) rotate(0 75.5 38)"><path d="M19 0 M19 0 C54.98 -0.17, 93.31 0.93, 132 0 M19 0 C44.05 1.13, 70.42 -0.18, 132 0 M132 0 C144.58 -1.06, 150.07 4.95, 151 19 M132 0 C145.76 -0.24, 152.26 7.2, 151 19 M151 19 C149.8 30.8, 151.88 44.75, 151 57 M151 19 C150.61 33.57, 151.22 45.37, 151 57 M151 57 C150.89 70.53, 145.34 76.11, 132 76 M151 57 C149.89 69.79, 143.06 75.35, 132 76 M132 76 C89.41 76.97, 47.31 76.01, 19 76 M132 76 C105.13 74.85, 78.19 74.14, 19 76 M19 76 C7.88 76.32, -1.64 70.27, 0 57 M19 76 C7.83 75.22, -0.19 71.51, 0 57 M0 57 C0.09 45.63, -1.23 38.71, 0 19 M0 57 C-0.6 49.85, -0.23 40.73, 0 19 M0 19 C1.28 4.7, 5.75 -0.36, 19 0 M0 19 C1.36 6.57, 5.9 2.29, 19 0" stroke="#000000" stroke-width="1" fill="none"></path></g><g transform="translate(540.1835075075057 387.40731754786657) rotate(0 39 22.5)"><text x="39" y="31" font-family="Virgil, Segoe UI Emoji" font-size="36px" fill="#000000" text-anchor="middle" style="white-space: pre;" direction="ltr">2, N</text></g><g stroke-linecap="round"><g transform="translate(664.9519152976984 264.5762718526198) rotate(0 27.58605853141148 -73.03576442556812)"><path d="M1 0.78 C11.18 -12.07, 62.25 -51.8, 61.09 -76.41 C59.94 -101.01, 5.2 -134.98, -5.94 -146.85 M0.06 0.14 C10.2 -12.62, 61.33 -50.95, 60.75 -75.24 C60.17 -99.53, 7.67 -133.65, -3.43 -145.61" stroke="#000000" stroke-width="1" fill="none"></path></g><g transform="translate(664.9519152976984 264.5762718526198) rotate(0 27.58605853141148 -73.03576442556812)"><path d="M25.98 -133.22 C15.08 -139.25, 7.62 -142.09, -4.99 -147.54 M24 -135.13 C13.11 -138.58, 2.23 -143.74, -4.2 -145.67" stroke="#000000" stroke-width="1" fill="none"></path></g><g transform="translate(664.9519152976984 264.5762718526198) rotate(0 27.58605853141148 -73.03576442556812)"><path d="M12.67 -117.6 C5.65 -128.39, 2.15 -135.89, -4.99 -147.54 M10.69 -119.51 C5.13 -129.04, -0.46 -140.4, -4.2 -145.67" stroke="#000000" stroke-width="1" fill="none"></path></g></g><mask></mask><g stroke-linecap="round" transform="translate(723.8213407678381 373.3767083141179) rotate(0 75.5 38)"><path d="M19 0 M19 0 C62.57 0.47, 102.77 -2.16, 132 0 M19 0 C44.27 -0.07, 70.65 0.35, 132 0 M132 0 C146.23 1.61, 152.92 6.87, 151 19 M132 0 C145.04 -1.8, 150.75 7.46, 151 19 M151 19 C152.36 32.02, 152.37 45.49, 151 57 M151 19 C150.35 28.52, 149.83 39.13, 151 57 M151 57 C150.69 69.59, 144.1 75.41, 132 76 M151 57 C151.28 70.34, 144.63 74.47, 132 76 M132 76 C100.91 75.9, 72.34 77.4, 19 76 M132 76 C94.71 75.76, 57.59 76.26, 19 76 M19 76 C7.97 75.37, 0.23 69.39, 0 57 M19 76 C5 76.75, -0.09 71.02, 0 57 M0 57 C-1.38 43.08, 0.41 27.9, 0 19 M0 57 C0.85 46.35, 0.97 35.02, 0 19 M0 19 C-0.84 6.63, 6.02 -0.47, 19 0 M0 19 C-1.83 5.37, 6.45 0.3, 19 0" stroke="#000000" stroke-width="1" fill="none"></path></g><g transform="translate(760.3213407678381 388.8767083141179) rotate(0 39 22.5)"><text x="39" y="31" font-family="Virgil, Segoe UI Emoji" font-size="36px" fill="#000000" text-anchor="middle" style="white-space: pre;" direction="ltr">3, R</text></g><g stroke-linecap="round"><g transform="translate(658.1553415637509 407.86538663828424) rotate(0 31.14821130209839 -0.1408185246746143)"><path d="M0.77 -0.66 C11.23 -0.69, 52.12 -0.3, 62.58 -0.25 M-0.28 1.6 C10 1.26, 50.92 -1.23, 61.49 -1.88" stroke="#000000" stroke-width="1" fill="none"></path></g><g transform="translate(658.1553415637509 407.86538663828424) rotate(0 31.14821130209839 -0.1408185246746143)"><path d="M32.87 9.63 C43.46 7.64, 51.13 1.66, 60.2 -3.37 M33.98 10.64 C43.23 6.3, 52.07 2.4, 61.94 -1.95" stroke="#000000" stroke-width="1" fill="none"></path></g><g transform="translate(658.1553415637509 407.86538663828424) rotate(0 31.14821130209839 -0.1408185246746143)"><path d="M31.63 -10.85 C42.55 -6.97, 50.59 -7.07, 60.2 -3.37 M32.74 -9.84 C42.59 -7.11, 51.87 -3.92, 61.94 -1.95" stroke="#000000" stroke-width="1" fill="none"></path></g></g><mask></mask><g stroke-linecap="round"><g transform="translate(799.9263050163693 360.9669442970778) rotate(0 -55.8380461988786 -122.05398796894679)"><path d="M-0.25 0.92 C3.32 -24.36, 44.39 -111.41, 21.25 -152.09 C-1.89 -192.77, -112.41 -227.74, -139.07 -243.15 M1.83 0.36 C5.3 -24.67, 44.22 -109.56, 20.59 -150.46 C-3.04 -191.36, -113.46 -229.49, -139.96 -245.03" stroke="#000000" stroke-width="1" fill="none"></path></g><g transform="translate(799.9263050163693 360.9669442970778) rotate(0 -55.8380461988786 -122.05398796894679)"><path d="M-108.53 -241.48 C-118.31 -243.6, -125.68 -243.78, -140.84 -244.99 M-109.62 -243.21 C-118.42 -243.52, -125.96 -242.83, -139.45 -244.48" stroke="#000000" stroke-width="1" fill="none"></path></g><g transform="translate(799.9263050163693 360.9669442970778) rotate(0 -55.8380461988786 -122.05398796894679)"><path d="M-117.21 -222.89 C-124.45 -230.3, -129.34 -235.79, -140.84 -244.99 M-118.29 -224.62 C-124.94 -229.89, -130.16 -234.17, -139.45 -244.48" stroke="#000000" stroke-width="1" fill="none"></path></g></g><mask></mask></svg>